<svg width="15" height="15" viewBox="0 0 15 15" fill="none" xmlns="http://www.w3.org/2000/svg">
<path d="M5.625 8.75C6.48813 8.75 7.26938 8.4 7.835 7.83437C8.4 7.26937 8.75 6.48813 8.75 5.625C8.75 4.76187 8.4 3.98063 7.835 3.41563C7.26938 2.85 6.48813 2.5 5.625 2.5C4.76187 2.5 3.98063 2.85 3.415 3.41563C2.85 3.98063 2.5 4.76187 2.5 5.625C2.5 6.48813 2.85 7.26937 3.415 7.83437C3.98063 8.4 4.76187 8.75 5.625 8.75Z" fill="white"/>
<path d="M5.625 13.125C7.82375 13.125 9.375 12.5 9.375 11.875C9.375 10.625 7.90375 9.375 5.625 9.375C3.28125 9.375 1.875 10.625 1.875 11.875C1.875 12.5 3.28125 13.125 5.625 13.125Z" fill="white"/>
<path d="M13.125 7.5H11.875V6.25C11.875 5.90438 11.5956 5.625 11.25 5.625C10.9044 5.625 10.625 5.90438 10.625 6.25V7.5H9.375C9.02938 7.5 8.75 7.77938 8.75 8.125C8.75 8.47062 9.02938 8.75 9.375 8.75H10.625V10C10.625 10.3456 10.9044 10.625 11.25 10.625C11.5956 10.625 11.875 10.3456 11.875 10V8.75H13.125C13.4706 8.75 13.75 8.47062 13.75 8.125C13.75 7.77938 13.4706 7.5 13.125 7.5Z" fill="white"/>
</svg>
