<svg width="30" height="30" viewBox="0 0 30 30" fill="none" xmlns="http://www.w3.org/2000/svg">
<path d="M3.74998 23.7499V22.4999C3.74998 19.7385 5.98856 17.4999 8.74998 17.4999H13.75C16.5114 17.4999 18.75 19.7385 18.75 22.4999V23.7499M18.75 13.7499C20.8211 13.7499 22.5 12.0709 22.5 9.99988C22.5 7.92881 20.8211 6.24988 18.75 6.24988M26.25 23.7499V22.4999C26.25 19.7385 24.0114 17.4999 21.25 17.4999H20.625M15 9.99988C15 12.0709 13.3211 13.7499 11.25 13.7499C9.17892 13.7499 7.49998 12.0709 7.49998 9.99988C7.49998 7.92881 9.17892 6.24988 11.25 6.24988C13.3211 6.24988 15 7.92881 15 9.99988Z" stroke="black" stroke-opacity="0.5" stroke-width="3.1875" stroke-linecap="round" stroke-linejoin="round"/>
</svg>
