<svg width="20" height="19" viewBox="0 0 20 19" fill="none" xmlns="http://www.w3.org/2000/svg">
<path fill-rule="evenodd" clip-rule="evenodd" d="M20 8.76023V15.5968C20 17.4377 18.5076 18.9301 16.6667 18.9301H15.4444C14.8922 18.9301 14.4444 18.4824 14.4444 17.9301V17.7079C14.4444 17.1556 14.8922 16.7079 15.4444 16.7079H16.6667C17.2803 16.7079 17.7778 16.2104 17.7778 15.5968V8.76023C17.7778 8.41415 17.6165 8.08784 17.3416 7.87761L10.6749 2.77957C10.2765 2.47492 9.72345 2.47492 9.32506 2.77957L2.65839 7.87761C2.38348 8.08784 2.22222 8.41415 2.22222 8.76023V15.5968C2.22222 16.2104 2.71968 16.7079 3.33333 16.7079H4.55556C5.10784 16.7079 5.55556 17.1556 5.55556 17.7079V17.9301C5.55556 18.4824 5.10784 18.9301 4.55556 18.9301H3.33333C1.49239 18.9301 0 17.4377 0 15.5968V8.76023C0 7.722 0.48377 6.74305 1.3085 6.11237L7.97517 1.01433C9.17036 0.100363 10.8297 0.100369 12.0248 1.01433L18.6915 6.11237C19.5162 6.74305 20 7.722 20 8.76023ZM9.88889 9.15234H10.1111C11.768 9.15234 13.1111 10.4955 13.1111 12.1523V15.7079C13.1111 17.3648 11.768 18.7079 10.1111 18.7079H9.88889C8.23204 18.7079 6.88889 17.3648 6.88889 15.7079V12.1523C6.88889 10.4955 8.23204 9.15234 9.88889 9.15234ZM11.1111 12.1523C11.1111 11.6001 10.6634 11.1523 10.1111 11.1523H9.88889C9.3366 11.1523 8.88889 11.6001 8.88889 12.1523V15.7079C8.88889 16.2602 9.3366 16.7079 9.88889 16.7079H10.1111C10.6634 16.7079 11.1111 16.2602 11.1111 15.7079V12.1523Z" fill="#8AD6E8"/>
</svg>
