<svg width="183" height="173" viewBox="0 0 183 173" fill="none" xmlns="http://www.w3.org/2000/svg">
<path d="M137.77 25.621C140.228 22.7028 139.869 18.3196 136.764 16.1026C122.821 6.14715 106.187 0.524727 88.9581 0.0349337C69.4203 -0.520507 50.2702 5.55749 34.6288 17.2784C18.9873 28.9994 7.77657 45.6722 2.82347 64.58C-2.12963 83.4877 -0.533071 103.516 7.35297 121.4C15.239 139.284 28.9496 153.97 46.2505 163.065C63.5513 172.16 83.4224 175.127 102.625 171.484C121.829 167.84 139.232 157.8 151.998 143C163.256 129.949 170.324 113.875 172.377 96.8663C172.834 93.0786 169.84 89.8575 166.027 89.7039C162.215 89.5503 159.034 92.5247 158.52 96.305C156.629 110.191 150.755 123.289 141.537 133.975C130.809 146.412 116.186 154.848 100.05 157.91C83.9139 160.972 67.2167 158.478 52.6792 150.836C38.1417 143.194 26.621 130.853 19.9946 115.826C13.3681 100.798 12.0265 83.9688 16.1885 68.0811C20.3505 52.1934 29.7706 38.1835 42.9138 28.3347C56.057 18.4859 72.1483 13.3787 88.5655 13.8454C102.672 14.2464 116.305 18.7426 127.833 26.7123C130.971 28.8819 135.313 28.5392 137.77 25.621Z" fill="#004AAD"/>
<path d="M173 27L88.4375 112L50 73.3636" stroke="#004AAD" stroke-width="20" stroke-linecap="round" stroke-linejoin="round"/>
</svg>
