<svg width="14" height="14" viewBox="0 0 14 14" fill="none" xmlns="http://www.w3.org/2000/svg">
<path d="M9.3625 1.94186C9.11392 1.95363 8.87866 2.05766 8.70269 2.23363L5.60355 5.33278C5.01776 5.91857 5.01776 6.86831 5.60355 7.4541L6.4939 8.34446C7.07969 8.93024 8.02944 8.93024 8.61522 8.34445L11.7189 5.24077C11.8894 5.07026 11.9926 4.84388 12.0094 4.60333L12.1498 2.59248C12.179 2.17451 11.8369 1.82468 11.4184 1.8445L9.3625 1.94186Z" stroke="white"/>
<path d="M5.83335 1.74996C5.83335 1.42779 5.57219 1.16663 5.25002 1.16663H4.66669C2.73369 1.16663 1.16669 2.73363 1.16669 4.66663V9.33329C1.16669 11.2663 2.73369 12.8333 4.66669 12.8333H9.33335C11.2663 12.8333 12.8334 11.2663 12.8334 9.33329V8.74996C12.8334 8.42779 12.5722 8.16663 12.25 8.16663C11.9279 8.16663 11.6667 8.42779 11.6667 8.74996V9.33329C11.6667 10.622 10.622 11.6666 9.33335 11.6666H4.66669C3.37802 11.6666 2.33335 10.622 2.33335 9.33329V4.66663C2.33335 3.37796 3.37802 2.33329 4.66669 2.33329H5.25002C5.57219 2.33329 5.83335 2.07213 5.83335 1.74996Z" fill="white"/>
<path d="M10.5 4.08329C10.5 4.40546 10.2389 4.66663 9.91669 4.66663C9.59452 4.66663 9.33335 4.40546 9.33335 4.08329C9.33335 3.76113 9.59452 3.49996 9.91669 3.49996C10.2389 3.49996 10.5 3.76113 10.5 4.08329Z" fill="white"/>
</svg>
