<svg width="30" height="24" viewBox="0 0 30 24" fill="none" xmlns="http://www.w3.org/2000/svg">
<rect x="5.29541" y="0.75" width="23.9545" height="18.839" rx="5.25" stroke="#8AD6E8" stroke-width="1.5"/>
<rect y="3.66101" width="25.4545" height="20.339" rx="6" fill="#8AD6E8"/>
<path d="M12.5835 20.3056C12.3677 20.3056 12.1853 20.2204 12.0365 20.0502C11.8877 19.8799 11.8132 19.6671 11.8132 19.4117V18.4667L12.1481 18.8115C11.6495 18.7859 11.2179 18.7136 10.8532 18.5944C10.4886 18.4752 10.1909 18.356 9.96016 18.2368C9.76667 18.1346 9.62899 17.9899 9.54713 17.8026C9.47271 17.6153 9.44294 17.4238 9.45782 17.228C9.48015 17.0322 9.54341 16.8534 9.6476 16.6916C9.75179 16.5299 9.88574 16.4234 10.0495 16.3724C10.2206 16.3128 10.4179 16.3383 10.6411 16.449C10.79 16.5426 11.0132 16.6405 11.3109 16.7427C11.616 16.8364 11.9919 16.8832 12.4384 16.8832C12.7509 16.8832 12.9965 16.8491 13.1751 16.781C13.3612 16.7129 13.4914 16.6235 13.5659 16.5128C13.6477 16.3937 13.6886 16.2659 13.6886 16.1297C13.6886 16.002 13.6589 15.8956 13.5993 15.8105C13.5472 15.7168 13.4579 15.636 13.3314 15.5678C13.2049 15.4912 13.03 15.4231 12.8068 15.3635L11.5453 15.057C10.8532 14.8783 10.336 14.5803 9.99365 14.1631C9.65876 13.7375 9.49131 13.1883 9.49131 12.5158C9.49131 12.005 9.59922 11.5495 9.81504 11.1494C10.0383 10.7407 10.3472 10.4087 10.7416 10.1533C11.1435 9.8979 11.6123 9.73615 12.1481 9.66804L11.8132 9.88513V9.02953C11.8132 8.77413 11.8877 8.56129 12.0365 8.39102C12.1853 8.22075 12.3677 8.13562 12.5835 8.13562C12.8068 8.13562 12.9928 8.22075 13.1417 8.39102C13.2905 8.56129 13.3649 8.77413 13.3649 9.02953V9.88513L13.03 9.6425C13.3128 9.65101 13.6179 9.70635 13.9454 9.80851C14.2729 9.90216 14.5594 10.0341 14.805 10.2044C14.9761 10.3065 15.0952 10.447 15.1622 10.6258C15.2366 10.8046 15.2626 10.9876 15.2403 11.1749C15.2254 11.3537 15.1659 11.5155 15.0617 11.6602C14.965 11.8049 14.831 11.9028 14.6598 11.9539C14.4961 11.9965 14.2989 11.9624 14.0682 11.8517C13.897 11.7666 13.7035 11.6985 13.4877 11.6474C13.2793 11.5878 13.0114 11.558 12.684 11.558C12.2895 11.558 11.9844 11.6389 11.7686 11.8007C11.5602 11.9624 11.456 12.171 11.456 12.4264C11.456 12.5967 11.5156 12.7414 11.6346 12.8606C11.7611 12.9713 11.9881 13.0692 12.3156 13.1543L13.5882 13.4735C14.2952 13.6523 14.8161 13.9503 15.151 14.3675C15.4934 14.7761 15.6645 15.3082 15.6645 15.9637C15.6645 16.4745 15.5566 16.9257 15.3408 17.3174C15.125 17.709 14.8236 18.0282 14.4366 18.2751C14.057 18.522 13.6142 18.6838 13.1082 18.7604L13.3649 18.4539V19.4117C13.3649 19.6671 13.2905 19.8799 13.1417 20.0502C13.0003 20.2204 12.8142 20.3056 12.5835 20.3056Z" fill="white"/>
</svg>
